<?xml version="1.0" standalone="no"?>
<!DOCTYPE svg PUBLIC "-//W3C//DTD SVG 20010904//EN"
 "http://www.w3.org/TR/2001/REC-SVG-20010904/DTD/svg10.dtd">
<svg version="1.0" xmlns="http://www.w3.org/2000/svg"
 width="260.000000pt" height="260.000000pt" viewBox="0 0 260.000000 260.000000"
 preserveAspectRatio="xMidYMid meet">
<metadata>
Created by potrace 1.11, written by Peter Selinger 2001-2013
</metadata>
<g transform="translate(0.000000,260.000000) scale(0.100000,-0.100000)"
fill="#000000" stroke="none">
<path d="M1185 2447 c-8 -13 -28 -63 -45 -111 -41 -118 -43 -234 -5 -293 10
-15 -22 14 -71 66 -93 98 -113 125 -114 153 0 9 -5 20 -12 24 -18 11 -1 -56
22 -88 25 -33 25 -39 3 -31 -16 6 -16 5 -4 -11 11 -13 16 -14 22 -4 6 9 16 5
38 -16 17 -16 28 -32 26 -36 -2 -4 7 -18 21 -31 44 -41 113 -202 100 -234 -3
-8 -1 -15 4 -15 6 0 10 -10 10 -22 0 -19 2 -20 10 -8 8 13 10 13 10 -2 0 -9
-4 -19 -8 -22 -14 -8 -69 55 -89 102 -17 41 -40 60 -29 25 3 -10 7 -34 10 -53
2 -19 9 -48 15 -64 7 -16 9 -31 7 -34 -8 -7 24 -57 45 -70 16 -10 18 -9 16 8
-4 23 -14 35 -30 35 -7 1 -11 7 -9 14 1 7 -2 10 -9 5 -8 -4 -9 -3 -5 5 4 6 12
9 17 6 15 -10 10 7 -8 28 -11 13 -12 17 -4 12 11 -6 13 -4 8 11 -5 14 -2 12
12 -6 11 -13 18 -27 16 -31 -2 -3 11 -21 30 -39 19 -19 35 -38 35 -44 0 -5
-11 1 -24 13 -24 23 -27 15 -11 -22 5 -12 10 -15 15 -8 12 20 63 -71 69 -124
l5 -50 7 60 c6 48 4 69 -12 104 -11 24 -22 42 -25 38 -3 -3 1 -16 9 -29 8 -12
18 -34 21 -48 4 -14 -4 -5 -18 20 -14 25 -23 54 -20 65 4 13 2 16 -3 8 -7 -10
-18 -4 -43 22 -19 19 -29 35 -24 35 6 0 21 -11 34 -25 30 -31 41 -18 35 42 -2
24 0 43 5 43 6 0 8 -24 6 -52 -3 -58 1 -78 16 -78 7 0 8 24 4 68 -4 37 -7 81
-7 97 0 37 -27 115 -40 115 -21 0 -80 171 -71 204 2 4 -2 13 -7 20 -15 18 13
144 55 244 16 37 11 42 -11 9z m-58 -279 c-3 -8 -6 -5 -6 6 -1 11 2 17 5 13 3
-3 4 -12 1 -19z m62 -185 c23 -55 41 -109 40 -120 0 -10 -10 9 -21 42 -12 33
-23 55 -25 50 -2 -6 6 -37 17 -70 21 -61 25 -83 13 -71 -5 4 -8 11 -9 14 0 4
-3 14 -6 22 -16 44 -28 102 -23 110 4 6 3 20 0 31 -5 15 -10 18 -15 9 -4 -7
-7 0 -7 17 0 15 -4 39 -8 53 -17 53 5 11 44 -87z m31 -230 c0 -19 -3 -24 -10
-17 -6 6 -8 18 -4 27 9 24 14 21 14 -10z"/>
<path d="M1213 2278 c3 -18 9 -42 13 -52 5 -13 4 -17 -4 -12 -8 5 -10 2 -6 -8
3 -9 11 -13 16 -10 6 4 8 1 6 -7 -7 -20 21 -71 34 -63 6 4 8 3 5 -3 -4 -6 11
-29 33 -51 21 -23 31 -39 22 -36 -16 5 -15 4 1 -9 9 -8 17 -20 17 -26 0 -7 5
-9 13 -5 9 6 9 5 0 -7 -10 -13 -10 -19 3 -35 15 -18 15 -18 9 4 -4 12 -4 22
-1 22 3 0 10 -16 15 -37 12 -41 2 -69 -11 -33 -16 43 -19 13 -3 -32 8 -26 12
-59 9 -76 -3 -17 -1 -32 5 -36 7 -5 8 -1 4 10 -4 12 -3 15 5 10 8 -5 12 2 13
21 1 17 3 21 6 11 4 -17 23 -26 23 -10 0 4 -10 43 -21 87 -24 90 -27 131 -11
147 8 8 10 2 6 -24 -9 -53 11 -104 52 -129 40 -24 58 -20 20 5 -48 31 -68 96
-52 168 5 22 4 43 -3 55 -9 16 -10 16 -11 -7 0 -14 -9 -40 -20 -58 l-21 -34
-64 89 c-42 58 -69 107 -80 146 -17 62 -31 77 -22 25z m189 -420 c-7 -7 -12
-8 -12 -2 0 6 3 14 7 17 3 4 9 5 12 2 2 -3 -1 -11 -7 -17z"/>
<path d="M1503 2195 c8 -79 32 -136 54 -128 11 4 14 2 11 -8 -3 -8 6 -33 19
-56 23 -41 24 -44 9 -74 -20 -40 -20 -45 -2 -30 24 20 29 67 10 98 l-16 28 21
-25 c11 -14 21 -38 21 -53 0 -16 4 -26 10 -22 6 3 10 -2 10 -11 0 -10 3 -15 6
-11 13 13 -10 72 -53 135 -25 37 -50 69 -54 70 -5 2 -6 8 -3 13 3 6 -1 18 -10
28 -10 11 -18 39 -19 65 -1 25 -6 46 -11 46 -5 0 -6 -29 -3 -65z"/>
<path d="M995 2086 c17 -40 20 -96 5 -96 -5 0 -10 -10 -10 -22 0 -13 -22 -68
-50 -123 -50 -100 -74 -183 -63 -223 8 -33 -4 -27 -31 16 -37 55 -51 132 -32
170 8 16 13 32 10 34 -3 3 5 22 17 42 23 39 42 106 30 106 -5 0 -13 -18 -20
-40 -6 -22 -30 -74 -52 -115 -23 -41 -36 -75 -31 -75 6 0 12 6 15 13 3 6 2 -7
0 -30 -3 -24 -1 -43 4 -43 5 0 17 -17 26 -39 10 -21 28 -49 41 -62 13 -13 26
-42 30 -63 8 -40 40 -132 54 -152 4 -6 16 -14 28 -18 16 -5 23 0 32 19 16 34
15 61 -4 135 -15 58 -14 81 3 160 5 24 5 24 -9 5 -20 -27 -30 -108 -18 -141 6
-14 13 -54 15 -87 l6 -62 -21 24 c-11 13 -17 27 -12 30 4 3 3 16 -3 28 -7 13
-14 21 -17 18 -3 -3 -3 7 -1 22 3 17 1 23 -4 16 -5 -7 -8 4 -8 30 0 23 -4 53
-9 67 -8 22 -7 23 7 11 9 -7 15 -17 12 -21 -3 -5 -1 -11 4 -14 5 -4 9 14 9 41
0 35 -3 42 -8 28 -8 -19 -9 -19 -9 2 -1 12 4 25 10 28 6 4 8 14 5 22 -3 8 1
30 9 49 8 19 10 32 5 29 -16 -10 -12 1 20 52 39 62 53 144 37 209 -7 26 -18
49 -24 52 -9 2 -9 -6 2 -32z m-98 -488 c-3 -7 -5 -2 -5 12 0 14 2 19 5 13 2
-7 2 -19 0 -25z m38 -148 c9 -28 20 -48 25 -45 4 3 11 -2 14 -11 10 -26 1 -26
-21 -1 -21 23 -59 122 -43 112 5 -3 16 -28 25 -55z"/>
<path d="M776 1877 c-54 -59 -105 -140 -128 -205 -15 -43 -19 -76 -16 -149 l3
-94 -23 26 c-13 15 -26 40 -29 56 -3 16 -12 34 -19 40 -11 9 -14 6 -14 -20 0
-43 23 -85 64 -116 19 -15 43 -47 55 -76 19 -42 21 -63 17 -134 -2 -46 -7 -89
-10 -94 -4 -5 2 -14 11 -20 17 -10 17 -10 -1 -11 -16 0 -17 -3 -8 -12 7 -7 12
-18 12 -26 0 -12 -3 -12 -17 -1 -14 12 -16 12 -9 0 6 -9 5 -12 -5 -9 -8 3 -12
12 -10 19 7 29 11 66 14 134 l4 70 -11 -49 c-7 -27 -17 -51 -24 -54 -7 -2 -12
-10 -12 -18 0 -9 5 -12 10 -9 12 7 13 -5 2 -23 -5 -7 -16 -10 -25 -6 -17 6
-21 -3 -18 -36 1 -11 -3 -9 -14 5 -8 11 -21 27 -28 35 -32 40 -41 70 -29 102
6 17 9 35 5 41 -3 6 -1 7 5 3 6 -3 16 2 21 13 14 25 14 34 1 26 -7 -4 -7 3 0
20 13 34 13 58 0 50 -5 -3 -10 -13 -10 -22 0 -9 -16 -50 -36 -90 -36 -73 -40
-102 -19 -155 6 -16 1 -18 -44 -18 -92 0 -201 -74 -242 -164 -11 -25 -19 -64
-19 -102 0 -56 4 -68 40 -122 46 -69 88 -109 157 -148 26 -15 66 -41 87 -58
31 -23 54 -32 103 -37 42 -4 76 -15 101 -31 20 -14 55 -31 77 -38 22 -7 66
-26 98 -42 46 -23 86 -33 180 -44 67 -8 140 -19 162 -24 63 -15 168 -11 333
10 138 19 166 26 272 70 65 28 123 50 129 50 6 0 30 17 54 39 54 50 133 97
176 106 54 12 177 141 226 239 34 68 40 90 44 157 2 43 -2 92 -8 109 -9 26 -7
36 15 67 28 42 26 74 -6 107 -19 19 -21 19 -56 2 -36 -17 -37 -17 -63 7 -46
44 -122 86 -177 98 -46 10 -53 15 -48 31 9 30 -14 82 -56 123 -22 22 -40 45
-40 52 0 7 -5 13 -11 13 -7 0 -9 10 -5 26 4 16 3 23 -3 20 -5 -4 -9 -24 -8
-46 1 -34 9 -47 48 -85 48 -46 54 -71 23 -102 -9 -10 -13 -7 -18 12 -4 14 -11
25 -17 25 -6 0 -6 -6 1 -19 10 -20 4 -51 -11 -51 -4 0 -13 8 -18 18 -6 9 -11
13 -11 9 0 -11 -42 33 -58 61 -22 39 -17 114 12 178 22 48 23 55 8 40 -19 -16
-20 -15 -26 21 -3 21 -17 61 -30 88 -30 63 -96 155 -97 135 0 -8 -7 1 -14 20
-12 31 -14 32 -14 10 -1 -14 21 -62 48 -108 44 -75 54 -106 75 -222 3 -14 3
11 2 55 -2 58 -1 73 6 55 12 -33 6 -209 -7 -207 -5 1 -11 -9 -12 -23 -2 -22
-2 -23 6 -5 8 16 10 10 10 -27 1 -25 4 -55 8 -65 6 -16 5 -16 -10 -4 -9 7 -17
28 -17 45 -1 27 -3 24 -20 -24 -11 -30 -19 -70 -20 -87 0 -18 -5 -33 -11 -33
-5 0 -7 5 -3 12 5 8 2 9 -9 5 -14 -5 -17 0 -17 33 0 22 -5 40 -11 40 -7 0 -9
18 -5 53 5 44 4 47 -5 22 -5 -16 -8 -49 -5 -72 3 -25 1 -43 -6 -45 -7 -3 -3
-19 10 -46 11 -23 18 -42 15 -42 -11 0 -53 52 -53 66 0 7 -5 14 -11 14 -7 0
-9 10 -5 26 4 14 2 31 -3 38 -6 7 -7 26 -1 51 10 42 5 59 -10 35 -32 -51 -18
-215 22 -257 12 -13 17 -23 12 -23 -18 1 -49 56 -61 110 l-13 55 5 -54 c2 -29
13 -68 23 -85 18 -31 18 -32 0 -33 -10 -1 -19 2 -19 8 -1 5 -3 12 -4 17 -2 4
-6 18 -11 32 l-8 25 -6 -25 c-4 -16 -1 -34 11 -50 13 -20 14 -27 4 -37 -7 -6
-16 -9 -19 -6 -3 4 -6 -1 -6 -11 0 -9 -4 -15 -9 -12 -5 4 -11 0 -14 -6 -2 -7
-7 -11 -10 -8 -4 3 3 44 15 90 18 73 19 94 10 149 -6 35 -16 69 -23 75 -9 8
-10 5 -5 -14 21 -75 18 -206 -3 -171 -6 9 -11 1 -15 -24 -5 -23 -3 -42 4 -50
7 -8 9 -19 5 -25 -8 -14 -35 33 -35 61 0 10 -5 21 -11 24 -6 4 -8 14 -5 22 5
11 2 13 -10 9 -12 -4 -15 -2 -11 9 4 8 2 17 -2 20 -5 3 -7 15 -5 28 4 19 3 20
-4 3 -7 -15 -12 -7 -26 42 -9 34 -21 64 -26 67 -13 8 -14 10 15 -70 13 -38 20
-71 15 -73 -6 -2 -6 -10 -1 -20 5 -9 12 -39 16 -67 l7 -50 -36 48 c-20 26 -41
47 -45 47 -5 0 -16 17 -26 38 -41 93 -55 106 -55 53 0 -44 16 -78 61 -132 46
-55 74 -129 49 -129 -5 0 -10 12 -10 26 0 31 -18 67 -29 59 -9 -5 -26 24 -22
38 1 5 -3 6 -8 2 -6 -3 -15 4 -21 16 -7 11 -14 18 -17 16 -3 -3 7 -21 21 -40
14 -18 31 -48 37 -66 9 -24 14 -29 20 -19 6 10 9 8 9 -7 0 -13 -7 -21 -19 -22
-14 -1 -20 7 -25 36 -3 21 -18 55 -34 77 -15 21 -33 50 -40 64 l-13 25 5 -24
c4 -17 2 -21 -6 -13 -6 6 -13 34 -16 61 -2 28 -9 51 -15 51 -6 0 -7 -16 -2
-42 4 -24 7 -50 8 -58 0 -8 20 -39 44 -68 23 -30 43 -62 43 -72 0 -10 3 -25 6
-34 3 -9 1 -16 -5 -16 -6 0 -11 9 -11 21 0 13 -4 18 -12 13 -10 -5 -10 -4 -1
6 6 7 9 19 6 27 -4 9 -8 11 -12 4 -4 -6 -12 -1 -20 12 -13 20 -13 21 2 8 27
-22 20 3 -8 29 -25 23 -25 23 -22 3 1 -12 9 -28 16 -37 8 -9 15 -38 17 -64 1
-26 0 -40 -3 -32 -3 8 -12 28 -20 44 -8 15 -10 25 -4 22 6 -4 11 -2 11 3 0 6
-5 11 -11 11 -14 0 -53 41 -63 65 -3 10 -9 15 -12 12 -3 -3 2 -21 11 -39 33
-62 36 -69 30 -78 -3 -5 -1 -11 5 -15 5 -3 10 -15 10 -26 0 -17 -3 -18 -21 -8
-15 8 -19 8 -15 0 15 -24 -7 -9 -50 34 -24 25 -49 45 -53 45 -5 0 -12 14 -16
30 -4 17 -11 28 -16 24 -15 -9 -10 33 11 87 23 57 20 81 -4 28 -8 -19 -15 -28
-15 -20 -1 8 19 52 44 98 25 46 43 88 41 92 -3 4 6 23 20 42 36 48 47 69 35
69 -10 0 -95 -129 -134 -205 -30 -59 -45 -111 -29 -101 13 8 -3 -54 -16 -63
-5 -3 -12 -36 -15 -73 -6 -61 -4 -68 19 -93 14 -15 23 -30 20 -33 -9 -8 -45
40 -57 78 -15 47 -29 60 -30 30 -1 -14 -3 -44 -4 -68 -2 -28 0 -40 7 -35 7 3
8 1 4 -5 -4 -7 -18 -12 -32 -12 -21 0 -24 4 -25 43 -1 23 -1 50 0 60 4 38 -8
14 -19 -38 -6 -30 -16 -55 -21 -55 -5 0 -9 5 -9 11 0 6 -6 9 -13 6 -20 -7 1
77 31 124 12 20 22 43 22 50 0 8 -7 1 -16 -16 -18 -37 -57 -87 -48 -63 5 14 1
16 -16 13 -18 -3 -20 -2 -10 10 6 7 20 12 30 10 14 -3 22 5 30 31 6 19 15 34
19 34 4 0 12 24 18 53 11 51 10 52 -21 80 l-31 28 30 -18 30 -17 -20 24 -20
24 25 -17 c13 -9 32 -17 42 -17 17 0 17 1 -1 19 -11 11 -33 27 -49 35 -35 18
-54 63 -46 109 5 29 4 31 -9 14 -32 -39 -30 -83 6 -150 19 -34 39 -62 45 -62
6 0 14 -4 19 -9 4 -5 3 -6 -3 -3 -7 4 -17 -14 -28 -51 -15 -54 -36 -98 -36
-78 0 6 -14 -3 -31 -20 l-31 -29 24 50 c22 48 31 136 14 152 -3 3 -6 16 -6 27
0 27 -20 99 -26 93 -2 -2 0 -26 5 -53 20 -104 23 -126 12 -119 -12 7 -17 -3
-25 -55 -3 -19 -17 -53 -31 -75 l-26 -40 6 39 c5 33 3 37 -9 27 -12 -10 -13
-8 -9 9 3 13 0 25 -7 30 -8 5 -9 10 -2 14 6 3 13 -3 17 -14 3 -11 10 -20 15
-20 13 0 6 73 -8 78 -7 2 -12 13 -11 25 0 21 1 21 9 2 16 -38 10 6 -10 68 -11
34 -20 71 -21 82 0 11 -3 64 -5 118 -4 77 -2 109 12 150 10 29 17 56 16 60 -1
4 9 23 23 41 14 18 25 36 25 40 0 4 11 22 24 39 50 68 47 74 -8 14z m1028 -71
c20 -30 36 -60 36 -67 0 -7 -18 16 -40 50 -22 34 -40 64 -40 66 0 13 11 0 44
-49z m-1149 -223 c-4 -36 -2 -42 4 -23 7 19 9 10 10 -42 1 -36 4 -73 7 -82 3
-9 1 -16 -5 -16 -6 0 -11 20 -12 48 0 35 -3 42 -9 27 -10 -24 -13 76 -4 113
10 36 14 25 9 -25z m1319 -79 c3 -8 2 -12 -4 -9 -6 3 -10 10 -10 16 0 14 7 11
14 -7z m-854 -114 c-6 -11 -13 -20 -16 -20 -2 0 0 9 6 20 6 11 13 20 16 20 2
0 0 -9 -6 -20z m-435 -20 c3 -5 1 -10 -4 -10 -6 0 -11 5 -11 10 0 6 2 10 4 10
3 0 8 -4 11 -10z m1150 -57 c-7 -41 -12 -50 -21 -41 -9 9 7 78 18 78 6 0 8
-14 3 -37z m32 -15 c-3 -7 -5 -2 -5 12 0 14 2 19 5 13 2 -7 2 -19 0 -25z m157
-15 c11 -11 36 -12 36 -2 0 6 5 7 11 4 6 -5 4 -12 -8 -20 -15 -11 -21 -11 -35
2 -20 18 -25 4 -7 -14 9 -9 5 -14 -15 -19 -16 -4 -25 -12 -22 -19 3 -8 -2 -11
-12 -9 -9 2 -24 0 -32 -6 -13 -9 -13 -12 3 -24 9 -7 17 -17 17 -21 0 -5 -12 2
-26 16 -17 15 -28 20 -31 12 -2 -7 -11 -9 -20 -6 -12 5 -14 3 -8 -6 5 -10 2
-12 -11 -7 -11 3 -25 2 -33 -3 -10 -7 -8 -12 10 -25 26 -18 43 -21 34 -6 -9
14 9 12 24 -2 10 -11 11 -9 5 7 -7 18 -6 18 9 6 20 -16 23 -2 5 19 -7 8 -3 6
9 -4 16 -13 26 -15 41 -7 11 6 23 7 27 3 5 -4 5 2 1 12 -5 16 -4 17 9 6 16
-14 21 0 5 16 -6 6 -2 10 13 10 12 0 28 -7 35 -15 10 -14 11 -13 5 4 -6 18 -5
18 10 6 10 -8 17 -9 17 -3 0 6 11 9 26 6 14 -3 23 -1 20 4 -2 4 3 8 12 9 11 1
17 -7 18 -23 1 -13 -2 -22 -6 -19 -5 3 -11 1 -15 -5 -4 -6 -11 -7 -17 -4 -8 5
-9 1 -4 -11 6 -16 4 -16 -11 -4 -13 11 -12 5 6 -25 14 -25 17 -35 7 -27 -12
10 -16 10 -16 2 0 -7 -5 -9 -12 -5 -7 5 -9 2 -5 -8 6 -17 -16 -19 -30 -3 -4 4
-2 5 5 1 17 -10 15 9 -3 24 -13 11 -14 10 -9 -5 5 -12 4 -16 -3 -12 -9 6 -56
-22 -73 -43 -3 -4 -19 -15 -37 -25 -26 -15 -36 -17 -57 -7 -16 7 -26 8 -26 2
0 -6 -7 -10 -15 -10 -8 0 -15 -3 -15 -8 0 -4 -31 -6 -69 -5 -75 2 -107 -11
-95 -40 9 -23 55 -22 87 3 16 13 40 20 66 20 23 0 41 4 41 8 0 4 12 8 28 9 23
1 55 7 72 13 3 1 10 3 15 4 27 5 46 20 41 33 -4 9 -2 11 7 6 18 -11 37 -13 37
-3 0 15 -18 21 -22 8 -3 -7 -7 -5 -11 6 -4 10 -3 15 3 11 6 -3 10 0 10 7 0 7
9 0 20 -17 11 -16 20 -25 20 -20 0 6 8 11 18 12 9 1 37 4 62 8 53 7 49 0 -34
-49 -32 -19 -84 -40 -115 -47 -31 -7 -67 -19 -81 -28 -14 -8 -28 -16 -32 -17
-5 -1 -11 -2 -15 -3 -5 -1 -3 -5 4 -9 8 -5 9 -12 2 -22 -8 -13 -11 -13 -19 2
-10 16 -12 16 -40 0 -22 -13 -28 -22 -24 -37 9 -27 10 -28 31 -17 11 6 25 7
32 3 17 -11 79 -3 115 15 16 8 35 14 43 14 7 0 33 18 57 40 58 54 63 51 8 -6
-24 -26 -58 -50 -76 -55 -118 -30 -230 -84 -198 -96 6 -3 12 -9 12 -15 0 -7
-4 -7 -13 1 -8 6 -35 8 -68 5 -30 -3 -64 -6 -77 -6 -12 0 -32 -11 -44 -23 -18
-18 -27 -21 -46 -14 -24 9 -52 -7 -52 -30 0 -5 -4 -12 -9 -15 -4 -3 -6 6 -3
19 5 29 -5 32 -24 7 -10 -12 -13 -13 -14 -3 0 9 -8 6 -22 -10 -13 -13 -29 -24
-35 -25 -29 -2 -33 -5 -33 -17 0 -10 11 -12 48 -6 57 8 89 16 101 23 5 4 12 0
14 -6 4 -10 7 -10 15 0 5 8 12 13 16 12 3 0 22 4 42 9 19 5 42 7 50 4 9 -3 14
2 14 15 0 24 17 38 50 39 14 1 19 -1 13 -4 -18 -6 -16 -33 1 -33 22 0 46 11
46 22 0 5 -4 6 -10 3 -6 -3 -7 1 -4 9 3 9 9 16 14 16 13 0 5 -45 -13 -70 -16
-23 -25 -25 -95 -27 -42 -1 -112 -11 -155 -22 -42 -10 -86 -17 -96 -14 -14 3
-19 0 -18 -14 1 -12 -6 -19 -20 -21 -25 -4 -30 7 -11 26 17 17 -4 15 -30 -4
-12 -8 -37 -16 -55 -16 -47 -1 -54 -9 -21 -24 23 -10 25 -12 9 -13 -11 0 -37
3 -57 8 -36 9 -38 8 -39 -18 -1 -14 0 -30 1 -36 1 -5 -2 -6 -7 -2 -4 5 -8 19
-8 30 0 15 -6 22 -19 20 -10 0 -39 10 -64 23 -34 18 -60 24 -101 23 -34 -1
-78 7 -113 19 -31 11 -59 18 -62 15 -10 -11 -152 -8 -181 3 -60 23 -78 27 -70
14 6 -9 3 -9 -13 -1 -11 6 -39 11 -62 11 -37 0 -42 3 -51 30 -12 33 -34 31
-23 -2 4 -12 0 -24 -11 -32 -16 -11 -15 -14 11 -24 16 -6 54 -13 84 -16 33 -4
81 -19 122 -39 56 -27 68 -30 71 -18 3 10 5 7 6 -6 0 -13 6 -23 11 -23 6 0 15
10 21 23 8 19 9 18 4 -8 l-5 -30 15 25 15 25 -2 -24 c-2 -13 3 -26 10 -28 7
-3 12 4 12 17 0 24 21 23 28 -1 3 -11 2 -11 -7 1 -9 13 -11 12 -11 -4 0 -13 5
-17 20 -13 11 3 20 1 20 -5 0 -5 5 -6 11 -3 6 4 8 13 5 21 -6 16 -4 17 18 8 9
-3 13 -10 10 -15 -3 -5 -2 -14 2 -20 4 -8 9 -7 15 2 6 10 9 11 9 2 0 -7 8 -13
18 -13 11 0 13 3 6 8 -9 5 -8 11 2 20 12 11 14 9 14 -8 0 -11 7 -20 15 -20 8
0 15 -4 15 -10 0 -15 68 -24 84 -11 10 8 16 8 25 -3 22 -27 -66 -36 -115 -12
-16 8 -69 20 -119 26 -66 9 -104 20 -143 41 -67 37 -144 66 -202 74 -75 11
-140 36 -176 67 -19 17 -34 26 -34 20 0 -6 13 -21 28 -34 45 -38 47 -52 4 -27
-22 13 -39 25 -38 26 1 2 -16 22 -38 46 -59 61 -77 130 -56 209 8 26 15 35 25
31 11 -3 15 2 15 18 0 35 38 74 103 108 52 27 65 30 120 25 34 -3 85 -14 112
-24 28 -9 76 -20 107 -24 31 -3 73 -16 93 -28 89 -52 394 -27 588 47 10 4 17
3 17 -4 0 -6 -7 -11 -16 -11 -8 0 -13 -4 -10 -9 7 -10 98 9 194 40 43 14 70
30 84 50 12 16 28 27 36 24 7 -2 35 12 63 33 27 20 54 38 59 38 6 1 14 2 20 3
5 0 7 8 3 16 -6 18 23 44 50 45 20 0 22 -11 5 -29 -10 -11 -8 -10 12 0 14 8
28 19 32 24 5 7 8 7 8 0 0 -5 7 -2 15 9 9 12 22 17 39 14 14 -3 25 -2 24 1 -2
21 11 28 26 14z m-604 -138 c0 -11 -45 40 -61 70 -7 11 5 2 24 -20 20 -22 36
-44 37 -50z m791 42 l11 -22 -21 22 c-22 23 -28 39 -11 28 5 -3 15 -16 21 -28z
m194 -2 c0 -25 -44 -40 -52 -18 -4 10 1 21 12 30 24 17 40 12 40 -12z m-669 3
c3 -4 -1 -5 -10 -4 -8 1 -18 5 -22 8 -3 4 1 5 10 4 8 -1 18 -5 22 -8z m-239
-60 c-2 -13 -4 -3 -4 22 0 25 2 35 4 23 2 -13 2 -33 0 -45z m-994 -3 c4 -27 3
-35 -3 -25 -5 8 -10 28 -10 44 0 39 6 30 13 -19z m566 -98 c8 -20 8 -26 0 -21
-8 4 -9 -1 -4 -17 9 -28 3 -24 -15 10 -10 19 -9 22 1 16 9 -6 10 -2 5 16 -4
13 -9 42 -11 64 l-4 40 8 -40 c5 -22 14 -53 20 -68z m401 41 c0 -38 -5 -34
-13 10 -4 21 -3 31 3 27 6 -3 10 -20 10 -37z m-351 -43 c0 -5 -4 -3 -9 5 -5 8
-9 22 -9 30 0 16 17 -16 18 -35z m-142 3 c-3 -8 -6 -5 -6 6 -1 11 2 17 5 13 3
-3 4 -12 1 -19z m28 -38 c3 -5 1 -10 -4 -10 -6 0 -11 5 -11 10 0 6 2 10 4 10
3 0 8 -4 11 -10z m723 -28 c5 -17 -27 -27 -41 -13 -9 9 -8 14 3 21 18 11 32 8
38 -8z m521 -21 c7 -5 10 -14 7 -20 -9 -14 -53 -14 -62 0 -4 8 -9 7 -15 -2 -4
-7 -11 -10 -15 -6 -4 3 -1 13 6 22 14 16 57 20 79 6z m-289 -21 c0 -5 -10 -10
-22 -10 -19 0 -20 2 -8 10 19 13 30 13 30 0z m84 -5 c-4 -8 -10 -15 -15 -15
-5 0 -9 7 -9 15 0 8 7 15 15 15 9 0 12 -6 9 -15z m-104 -29 c0 -3 -4 -8 -10
-11 -5 -3 -10 -1 -10 4 0 6 5 11 10 11 6 0 10 -2 10 -4z m-100 -37 c0 -6 -4
-7 -10 -4 -5 3 -10 11 -10 16 0 6 5 7 10 4 6 -3 10 -11 10 -16z m286 -16 c-10
-10 -19 5 -10 18 6 11 8 11 12 0 2 -7 1 -15 -2 -18z m-56 -18 c0 -8 -2 -15 -4
-15 -2 0 -6 7 -10 15 -3 8 -1 15 4 15 6 0 10 -7 10 -15z m40 -7 c0 -6 -6 -5
-15 2 -8 7 -15 14 -15 16 0 2 7 1 15 -2 8 -4 15 -11 15 -16z m-99 -14 c9 -26
10 -26 24 -8 9 12 14 14 15 6 0 -7 5 -10 10 -7 6 3 10 3 10 -2 0 -4 -28 -21
-62 -37 -67 -32 -138 -45 -138 -25 0 7 11 10 30 7 26 -4 31 -1 37 20 3 14 8
19 13 13 4 -7 12 -1 20 16 8 18 14 23 18 14 2 -7 -1 -17 -8 -21 -9 -5 -9 -9
-1 -14 6 -4 11 -2 11 4 0 6 4 9 9 5 6 -3 6 6 1 25 -11 37 -3 40 11 4z m-98
-25 c-8 -8 -13 -7 -18 2 -5 8 -4 10 3 5 7 -4 12 -2 12 5 0 7 3 9 7 6 4 -4 2
-12 -4 -18z m251 12 c3 -5 -1 -11 -9 -14 -9 -4 -12 -1 -8 9 6 16 10 17 17 5z
m-274 -31 c0 -5 -5 -10 -11 -10 -5 0 -7 5 -4 10 3 6 8 10 11 10 2 0 4 -4 4
-10z m153 -90 c3 -11 3 -20 1 -20 -2 0 -8 9 -14 20 -6 11 -7 20 -2 20 6 0 12
-9 15 -20z m-443 0 c0 -5 -4 -10 -10 -10 -5 0 -10 5 -10 10 0 6 5 10 10 10 6
0 10 -4 10 -10z m-123 -32 c-3 -8 -6 -5 -6 6 -1 11 2 17 5 13 3 -3 4 -12 1
-19z m443 -18 c0 -5 -7 -10 -15 -10 -8 0 -15 -6 -15 -14 0 -8 -9 -18 -21 -21
-36 -12 -32 2 8 29 43 30 43 30 43 16z m-96 -56 c3 -8 2 -12 -4 -9 -6 3 -10
10 -10 16 0 14 7 11 14 -7z m-277 -41 c-3 -10 -5 -4 -5 12 0 17 2 24 5 18 2
-7 2 -21 0 -30z m148 -11 c13 -43 -46 -72 -74 -38 -10 11 -7 19 10 35 13 12
26 21 31 21 4 0 4 8 1 18 -6 15 -5 16 9 2 8 -9 19 -26 23 -38z m52 26 c-3 -8
-6 -5 -6 6 -1 11 2 17 5 13 3 -3 4 -12 1 -19z m-167 -9 c0 -5 -4 -9 -10 -9 -5
0 -10 7 -10 16 0 8 5 12 10 9 6 -3 10 -10 10 -16z m17 -1 c-3 -8 -6 -5 -6 6
-1 11 2 17 5 13 3 -3 4 -12 1 -19z m124 13 c7 11 9 10 9 -3 0 -10 -7 -18 -15
-18 -8 0 -15 8 -14 18 0 12 2 13 6 3 5 -11 7 -11 14 0z m-214 -23 c-3 -8 -6
-5 -6 6 -1 11 2 17 5 13 3 -3 4 -12 1 -19z m-447 -2 c0 -15 -37 -32 -47 -22
-9 8 17 36 33 36 8 0 14 -6 14 -14z m174 -28 c14 -9 1 -22 -13 -13 -6 3 -11
16 -10 28 0 15 2 17 6 7 3 -8 11 -18 17 -22z m234 -39 c4 -1 18 -3 32 -5 43
-6 55 -9 68 -17 8 -6 15 0 21 15 10 23 10 23 10 1 1 -12 -4 -25 -11 -29 -20
-12 -137 -5 -167 11 -16 8 -30 13 -32 11 -10 -8 -99 -15 -99 -7 0 10 50 22 96
24 22 0 30 5 27 14 -3 7 0 13 6 13 6 0 11 -9 11 -20 0 -11 5 -20 10 -20 6 0
10 6 9 13 -3 24 4 42 8 20 2 -13 7 -24 11 -24z m-291 9 c-3 -8 -6 -5 -6 6 -1
11 2 17 5 13 3 -3 4 -12 1 -19z m60 -28 c20 0 34 -3 30 -6 -8 -9 -148 6 -142
15 2 4 18 6 35 3 20 -3 30 0 31 9 1 8 3 6 6 -3 3 -13 15 -18 40 -18z m-387 1
c0 -16 -28 -20 -40 -5 -10 12 -8 14 14 14 14 0 26 -4 26 -9z m483 -83 c21 -16
8 -41 -16 -32 -9 3 -17 10 -17 15 0 4 -7 6 -15 3 -8 -4 -15 -2 -15 4 0 21 39
27 63 10z"/>
<path d="M1783 1128 c4 -12 2 -15 -7 -12 -8 3 -17 0 -21 -5 -3 -6 -11 -9 -16
-6 -16 11 -9 -11 9 -28 22 -20 39 -23 24 -4 -8 10 -6 13 8 13 10 0 16 -4 14
-8 -3 -4 2 -5 10 -2 9 3 13 10 10 16 -3 5 0 9 7 7 36 -4 42 1 24 21 -19 20
-41 28 -30 10 9 -14 -8 -12 -24 3 -11 10 -13 9 -8 -5z"/>
<path d="M2087 1124 c6 -17 5 -18 -12 -4 -17 14 -17 14 -4 -8 8 -12 15 -18 17
-12 2 6 8 8 13 4 15 -9 10 13 -6 26 -13 11 -14 10 -8 -6z"/>
<path d="M1702 1092 c-9 -6 -6 -14 12 -31 17 -16 26 -19 31 -11 10 16 -26 52
-43 42z"/>
<path d="M1670 1071 c0 -5 6 -12 13 -15 6 -3 -1 -2 -17 1 -24 5 -28 3 -23 -10
4 -12 2 -14 -10 -10 -11 4 -14 2 -11 -8 2 -8 17 -15 33 -17 23 -3 27 -1 21 14
-5 14 -4 15 9 4 11 -9 15 -9 15 -1 0 7 5 9 10 6 6 -3 10 -3 10 2 -1 12 -50 46
-50 34z"/>
<path d="M340 989 c-24 -10 -40 -26 -40 -43 0 -5 8 -2 18 7 10 10 23 17 28 17
6 0 19 7 30 15 23 17 3 20 -36 4z"/>
<path d="M1625 970 c-4 -6 -11 -8 -16 -5 -5 4 -9 2 -9 -2 0 -5 -16 -8 -35 -7
-25 1 -38 -3 -45 -16 -12 -22 -2 -32 20 -20 10 5 21 6 25 2 5 -4 6 0 3 8 -5
12 1 16 23 14 32 -2 69 19 51 30 -6 3 -13 2 -17 -4z"/>
<path d="M666 950 c6 -6 20 -12 32 -15 12 -2 26 -6 31 -10 5 -3 13 0 17 7 4 7
4 10 0 6 -4 -3 -23 0 -41 8 -41 17 -53 18 -39 4z"/>
<path d="M1295 931 c-3 -6 -11 -9 -16 -6 -10 7 -80 -24 -91 -39 -5 -7 -8 -7
-8 2 0 6 -7 12 -15 12 -8 0 -15 -4 -15 -10 0 -12 -22 -9 -33 5 -5 6 -7 4 -4
-5 2 -8 10 -14 17 -12 8 2 10 -3 7 -13 -4 -8 -2 -15 2 -15 5 0 11 5 13 10 2 6
14 12 28 15 18 3 30 -2 42 -18 14 -17 18 -18 18 -6 0 9 8 23 18 30 15 13 16
12 4 -3 -8 -10 -9 -19 -3 -22 15 -10 40 4 35 19 -3 7 0 23 6 35 12 22 8 40 -5
21z"/>
<path d="M1323 909 c-3 -38 22 -39 32 -1 7 27 7 27 16 5 9 -26 19 -29 37 -11
9 9 12 9 12 0 0 -7 7 -12 15 -12 8 0 15 4 15 8 0 5 13 7 29 6 23 -1 29 2 28
16 -1 14 -5 16 -18 9 -11 -6 -20 -5 -24 1 -4 6 -12 7 -18 3 -16 -9 -57 -13
-57 -5 0 4 -15 8 -33 9 -29 1 -32 -1 -34 -28z"/>
<path d="M756 922 c-3 -5 3 -18 13 -29 14 -15 29 -19 65 -17 25 1 46 -2 46 -6
0 -5 6 -7 13 -4 8 3 20 -2 27 -11 7 -8 22 -15 35 -15 33 0 85 29 85 48 0 15
-2 15 -10 2 -5 -8 -10 -10 -10 -3 0 29 -94 37 -127 10 -8 -6 -13 -6 -13 0 0 6
-15 11 -32 12 -18 2 -41 3 -50 4 -9 1 -14 5 -12 9 3 4 -2 8 -10 8 -8 0 -17 -4
-20 -8z m222 -28 c33 -9 27 -21 -14 -26 -37 -4 -56 8 -33 23 17 10 18 10 47 3z"/>
<path d="M497 883 c7 -17 20 -17 26 1 4 10 0 14 -12 13 -11 -1 -17 -7 -14 -14z"/>
<path d="M534 885 c-9 -22 1 -29 15 -11 8 10 9 16 1 21 -5 3 -13 -1 -16 -10z"/>
<path d="M1090 893 c0 -6 -3 -18 -6 -27 -4 -11 -1 -16 10 -16 9 0 16 6 16 13
0 16 -20 46 -20 30z"/>
<path d="M450 880 c0 -5 7 -10 15 -10 8 0 15 5 15 10 0 6 -7 10 -15 10 -8 0
-15 -4 -15 -10z"/>
<path d="M566 873 c-6 -14 -5 -15 5 -6 7 7 10 15 7 18 -3 3 -9 -2 -12 -12z"/>
<path d="M1046 874 c-8 -21 -8 -24 4 -24 5 0 14 9 20 20 8 16 8 20 -4 20 -7 0
-17 -7 -20 -16z"/>
<path d="M593 865 c-3 -9 -3 -18 0 -21 9 -9 27 6 27 22 0 19 -19 18 -27 -1z"/>
<path d="M627 857 c-3 -8 0 -23 7 -32 12 -17 13 -17 20 0 4 11 1 24 -7 33 -12
12 -15 11 -20 -1z"/>
<path d="M1596 855 c-9 -9 -16 -24 -16 -33 0 -15 -2 -15 -10 -2 -10 16 -70 22
-70 8 0 -5 -6 -6 -12 -1 -7 4 -17 8 -23 9 -5 1 -18 5 -27 9 -13 5 -18 2 -18
-10 0 -13 -3 -15 -12 -7 -19 15 -68 3 -69 -17 0 -10 -2 -11 -6 -3 -2 6 -9 12
-15 12 -6 0 -8 -7 -4 -15 3 -8 1 -15 -3 -15 -5 0 -11 5 -13 10 -2 7 -16 4 -37
-6 -19 -10 -46 -18 -60 -19 -18 -1 -26 -7 -25 -18 1 -9 -2 -17 -7 -17 -5 0 -9
7 -9 15 0 14 -48 45 -69 45 -6 0 -8 -8 -4 -17 5 -17 5 -17 -8 -1 -16 20 -63
14 -52 -6 3 -6 0 -6 -8 2 -11 10 -16 8 -26 -10 -10 -19 -12 -20 -13 -5 0 9 -4
17 -10 17 -5 0 -14 -8 -20 -17 -11 -17 -11 -17 -6 0 3 9 1 17 -4 17 -6 0 -10
-7 -10 -15 0 -8 -4 -15 -10 -15 -5 0 -7 7 -4 15 5 11 2 13 -11 9 -10 -4 -20
-1 -25 6 -11 18 -60 22 -60 4 0 -8 5 -14 12 -14 21 0 -2 -13 -28 -16 -24 -3
-25 -2 -10 15 22 24 20 41 -4 41 -11 0 -20 -4 -20 -10 0 -5 -5 -10 -11 -10 -6
0 -8 7 -5 17 7 18 -9 33 -38 33 -12 0 -16 -5 -12 -15 3 -8 1 -15 -4 -15 -6 0
-10 9 -10 20 0 11 -4 20 -10 20 -5 0 -10 -13 -10 -29 0 -21 6 -32 20 -36 11
-3 20 -10 20 -14 0 -4 21 -18 46 -30 38 -19 52 -22 83 -14 21 6 47 6 60 1 13
-5 31 -6 40 -4 48 14 122 14 155 1 20 -9 36 -19 36 -24 0 -5 23 -9 50 -8 28 1
50 5 50 9 0 5 14 8 30 8 29 0 69 16 81 34 4 4 10 3 13 -3 4 -6 13 -8 19 -4 7
4 19 8 27 8 8 0 15 5 15 12 0 6 3 15 8 19 4 4 7 0 7 -9 0 -10 5 -17 10 -17 6
0 10 5 10 11 0 5 5 7 10 4 6 -4 17 -1 25 5 17 14 57 10 62 -7 3 -8 -6 -11 -24
-10 -30 3 -58 -16 -48 -33 10 -17 51 -11 70 10 10 11 31 20 46 20 15 0 31 5
34 10 4 6 15 8 25 5 12 -4 22 1 29 12 10 17 10 17 11 0 0 -14 5 -16 28 -11 46
11 62 23 56 42 -5 13 -4 14 4 3 15 -21 33 -4 23 21 -6 16 -17 22 -37 23 -16 0
-32 4 -35 9 -9 12 -31 -3 -26 -18 3 -7 -1 -13 -8 -13 -7 0 -10 8 -7 19 5 19
-2 21 -33 9 -11 -5 -25 -4 -31 1 -8 5 -18 3 -28 -7z m69 -15 c-3 -5 -12 -10
-18 -10 -7 0 -6 4 3 10 19 12 23 12 15 0z m-928 -42 c-3 -8 -6 -5 -6 6 -1 11
2 17 5 13 3 -3 4 -12 1 -19z"/>
<path d="M220 826 c0 -13 -6 -26 -12 -29 -10 -4 -10 -7 -1 -17 10 -11 14 -8
23 14 13 34 13 56 0 56 -5 0 -10 -11 -10 -24z"/>
<path d="M440 760 c0 -5 5 -10 10 -10 6 0 10 5 10 10 0 6 -4 10 -10 10 -5 0
-10 -4 -10 -10z"/>
<path d="M251 710 c17 -28 35 -48 40 -44 11 6 -3 35 -34 70 -35 41 -38 27 -6
-26z"/>
<path d="M316 745 c4 -8 10 -15 15 -15 5 0 9 7 9 15 0 8 -7 15 -15 15 -9 0
-12 -6 -9 -15z"/>
<path d="M470 753 c0 -15 33 -41 46 -36 8 3 14 0 14 -7 0 -7 7 -10 16 -6 10 4
25 -1 36 -11 18 -17 68 -26 68 -13 -1 5 -80 44 -92 45 -3 0 -9 3 -13 7 -4 4
-13 4 -20 2 -7 -3 -15 2 -18 10 -6 15 -37 23 -37 9z"/>
<path d="M359 735 c-4 -3 -4 -17 -1 -30 5 -27 27 -32 52 -14 13 9 12 10 -2 5
-10 -3 -18 -2 -18 2 0 14 -25 43 -31 37z"/>
<path d="M1712 679 c-7 -11 -11 -23 -9 -25 7 -7 29 24 25 36 -2 6 -9 1 -16
-11z"/>
<path d="M497 664 c6 -17 33 -19 33 -1 0 7 -9 13 -19 14 -14 1 -18 -3 -14 -13z"/>
<path d="M540 660 c0 -14 7 -20 24 -20 13 0 43 -7 67 -15 43 -15 116 -18 125
-4 2 4 14 5 27 1 20 -5 21 -4 8 11 -7 9 -9 17 -3 17 5 0 13 -7 16 -16 3 -9 12
-14 19 -11 6 2 20 0 30 -5 14 -7 22 -5 34 9 13 16 14 16 9 1 -3 -10 -1 -18 4
-18 6 0 10 9 10 19 0 11 6 22 13 24 6 3 -5 6 -25 6 -27 1 -38 -4 -41 -16 -4
-17 -5 -17 -6 0 -1 12 -8 17 -18 15 -10 -1 -24 1 -30 5 -7 5 -27 4 -45 -1 -45
-12 -168 -8 -196 7 -19 10 -22 9 -22 -9z m165 -30 c3 -5 1 -10 -4 -10 -6 0
-11 5 -11 10 0 6 2 10 4 10 3 0 8 -4 11 -10z"/>
<path d="M940 651 c0 -5 -3 -16 -6 -25 -3 -9 -1 -16 5 -16 6 0 10 3 10 8 -3
20 2 32 13 26 7 -4 8 -3 4 4 -9 14 -26 16 -26 3z"/>
<path d="M982 620 c0 -19 2 -27 5 -17 2 9 2 25 0 35 -3 9 -5 1 -5 -18z"/>
<path d="M1000 621 c0 -23 4 -29 16 -24 17 6 15 44 -3 51 -9 2 -13 -7 -13 -27z"/>
<path d="M1040 614 c0 -13 4 -24 10 -24 5 0 7 7 4 15 -4 8 -1 15 5 15 6 0 11
-10 11 -22 0 -18 2 -20 9 -9 12 19 4 38 -20 44 -15 4 -19 0 -19 -19z"/>
<path d="M961 614 c0 -11 3 -14 6 -6 3 7 2 16 -1 19 -3 4 -6 -2 -5 -13z"/>
<path d="M1356 614 c-8 -20 0 -32 14 -18 5 5 5 15 1 22 -6 11 -10 10 -15 -4z"/>
<path d="M1315 610 c3 -5 10 -10 16 -10 5 0 9 5 9 10 0 6 -7 10 -16 10 -8 0
-12 -4 -9 -10z"/>
<path d="M1126 601 c-4 -6 -11 -9 -16 -6 -4 3 -11 -2 -14 -10 -6 -16 37 -41
59 -36 6 2 28 4 50 5 22 1 41 5 43 9 6 18 1 25 -15 22 -10 -1 -26 5 -36 13
-16 15 -17 14 -11 -1 8 -23 -31 -23 -44 -1 -6 12 -11 13 -16 5z"/>
<path d="M1645 1843 c-4 -21 -11 -43 -17 -50 -13 -15 -6 -79 8 -76 6 1 11 -8
10 -20 -1 -13 14 -41 36 -66 21 -24 38 -48 38 -53 0 -5 -9 -26 -20 -48 -11
-21 -16 -41 -11 -44 13 -9 68 143 73 203 6 60 -6 49 -17 -16 -6 -40 -8 -42
-28 -31 -22 11 -22 11 -3 -11 35 -39 10 -31 -29 9 -22 22 -34 40 -29 40 6 0
14 -3 18 -7 3 -4 16 -8 27 -10 16 -2 13 4 -17 32 l-37 35 6 75 c6 82 3 96 -8
38z"/>
<path d="M1290 1765 c0 -5 7 -17 17 -27 9 -10 11 -18 5 -18 -6 0 0 -25 15 -57
l26 -56 -26 -74 c-14 -40 -21 -71 -16 -68 12 8 11 -7 -1 -41 -6 -15 -8 -29 -6
-32 8 -7 23 37 30 87 7 55 16 65 17 20 0 -33 1 -33 10 -9 14 34 2 135 -22 183
-11 21 -19 41 -16 43 7 7 94 -107 133 -173 20 -35 39 -61 41 -59 3 2 0 14 -7
25 -6 12 -8 21 -5 21 3 0 13 -17 22 -37 9 -21 18 -32 20 -26 3 7 -5 28 -16 46
-11 19 -18 36 -15 39 4 5 -6 35 -29 86 -7 15 -17 22 -29 19 -10 -3 -21 0 -25
5 -4 7 -1 8 8 4 8 -4 2 3 -13 16 -27 23 -39 46 -18 33 6 -3 10 1 10 9 0 19 -4
20 -30 4 -17 -11 -24 -8 -50 17 -16 16 -30 25 -30 20z m158 -127 c-2 -7 3 -12
10 -10 8 1 11 -2 7 -7 -3 -6 2 -22 11 -36 14 -21 15 -28 4 -38 -10 -9 -11 -9
-6 0 4 7 -4 30 -18 52 -14 21 -22 42 -19 45 10 9 13 7 11 -6z"/>
<path d="M1134 1728 c-4 -7 -4 -10 1 -6 4 4 15 2 24 -5 14 -11 14 -10 2 6 -16
20 -18 21 -27 5z"/>
<path d="M1000 1540 c5 -16 11 -33 14 -39 3 -5 8 -26 12 -47 3 -22 10 -43 15
-48 5 -6 9 -24 9 -40 0 -30 0 -30 15 -10 17 26 11 53 -35 148 -34 71 -44 83
-30 36z"/>
<path d="M550 1438 c0 -3 7 -19 15 -34 17 -33 19 -91 5 -128 -5 -14 -6 -26 -2
-26 4 0 14 16 21 36 16 46 7 116 -19 139 -11 10 -20 16 -20 13z"/>
<path d="M995 1193 c-4 -21 -11 -41 -16 -44 -6 -3 -4 -11 4 -18 12 -9 16 -3
21 40 8 60 2 77 -9 22z"/>
<path d="M1077 1191 c-4 -17 -3 -21 5 -13 5 5 8 16 6 23 -3 8 -7 3 -11 -10z"/>
<path d="M1592 1148 c-7 -7 -12 -19 -12 -27 1 -14 3 -13 14 1 7 10 16 15 19
11 4 -3 7 -1 7 5 0 17 -16 22 -28 10z"/>
</g>
</svg>
